<?xml version="1.0" encoding="UTF-8"?>
<svg id="Layer_2" data-name="Layer 2" xmlns="http://www.w3.org/2000/svg" viewBox="0 0 38.92 70.85">
  <defs>
    <style>
      .cls-1 {
        fill: #ffffff;
      }
    </style>
  </defs>
  <g id="Layer_1-2" data-name="Layer 1">
    <path class="cls-1" d="m0,0v52.1s0,.45,0,1.23.32,2.24.32,2.24c.69,3.76,2.51,7.09,5.5,9.98,3.69,3.53,8.24,5.3,13.64,5.3s10.02-1.77,13.65-5.3c3.88-3.81,5.81-8.3,5.81-13.46v-15.94c0-.36-.03-.71-.05-1.07-.23-4.85-1.92-8.73-5.05-11.64-.24-.25-.46-.51-.71-.75-2.86-2.74-4.82-4.13-8.72-4.74l11.34-11.78L29.21,0,9.38,20.07V0m17.23,59.99c-1.95,1.67-4.34,2.51-7.15,2.51s-5.2-.84-7.15-2.51c-1.95-1.67-2.93-4.31-2.93-7.9v-.75h0v-15.1c0-3.56.97-6.19,2.91-7.88,1.97-1.69,4.36-2.53,7.17-2.53s5.2.84,7.15,2.51c1.95,1.67,2.93,4.31,2.93,7.9v15.85c0,3.59-.98,6.22-2.93,7.89Z"/>
  </g>
</svg>